<svg id="svg" version="1.1" xmlns="http://www.w3.org/2000/svg" xmlns:xlink="http://www.w3.org/1999/xlink" width="400" height="296.5" viewBox="0, 0, 400,296.5"><g id="svgg"><path id="path0" d="M98.591 19.388 C 96.267 20.401,96.401 16.856,96.373 77.920 L 96.348 132.563 95.724 133.186 C 94.910 134.000,82.649 133.826,73.684 132.873 C 70.586 132.544,65.048 132.064,61.379 131.807 C 48.835 130.929,45.146 130.391,45.446 129.486 C 45.588 129.059,48.040 128.558,52.039 128.141 C 55.526 127.776,57.558 127.263,56.915 126.909 C 53.588 125.077,23.435 126.224,20.261 128.304 C 17.153 130.340,21.144 132.567,29.207 133.295 C 30.348 133.398,34.085 133.867,37.509 134.337 C 40.934 134.807,46.071 135.327,48.925 135.494 C 51.779 135.660,55.172 135.931,56.465 136.096 C 57.758 136.261,62.895 136.593,67.881 136.833 C 88.351 137.821,94.646 138.333,95.577 139.087 L 96.219 139.606 96.368 168.765 C 96.485 191.756,96.597 198.066,96.897 198.592 C 97.805 200.182,98.318 200.285,106.055 200.445 C 115.208 200.633,114.265 199.747,114.455 208.339 L 114.603 215.027 115.435 215.742 C 116.256 216.447,116.348 216.457,122.403 216.458 C 132.314 216.461,132.082 216.271,132.138 224.414 C 132.189 231.802,132.163 231.453,132.712 232.002 C 133.536 232.827,314.075 232.700,314.901 231.875 C 315.226 231.549,315.500 231.049,315.509 230.764 C 315.518 230.478,315.551 210.607,315.583 186.605 L 315.641 142.964 316.261 142.127 C 317.452 140.517,317.814 140.459,328.984 140.062 C 334.692 139.859,342.632 139.487,346.627 139.234 C 350.623 138.982,355.360 138.771,357.153 138.764 C 360.492 138.753,361.330 138.686,371.831 137.594 C 381.454 136.592,383.346 135.860,382.465 133.480 C 381.911 131.981,380.024 131.569,372.572 131.317 C 368.821 131.190,364.752 130.953,363.529 130.790 C 360.729 130.416,355.907 130.381,355.690 130.732 C 355.434 131.147,356.293 131.359,359.455 131.660 C 365.398 132.227,367.055 132.705,366.158 133.595 C 365.132 134.613,362.345 134.925,351.668 135.218 C 345.878 135.376,336.156 135.698,330.062 135.933 C 317.935 136.400,317.404 136.357,316.263 134.819 L 315.641 133.981 315.609 97.606 C 315.579 63.085,315.605 61.119,316.128 59.033 C 317.349 54.165,315.994 52.736,311.463 54.111 C 310.481 54.409,308.685 54.554,305.944 54.556 C 299.293 54.561,299.390 54.696,299.185 45.152 C 298.990 36.114,299.830 36.963,290.884 36.768 C 282.166 36.578,283.065 37.509,282.876 28.477 C 282.715 20.750,282.610 20.297,280.772 19.352 C 279.691 18.797,99.867 18.832,98.591 19.388 M280.783 20.006 C 282.106 20.690,282.282 21.717,282.300 28.880 C 282.325 38.739,281.881 38.240,290.639 38.246 C 295.610 38.250,296.852 38.332,297.202 38.683 C 297.718 39.199,298.100 53.544,297.615 54.186 C 297.394 54.478,280.398 54.571,215.984 54.631 L 134.632 54.707 133.863 55.476 C 133.440 55.899,132.973 56.766,132.826 57.403 C 132.456 58.994,132.457 132.278,132.826 133.249 C 133.534 135.111,132.459 134.988,155.078 135.785 C 159.726 135.948,167.064 136.232,171.386 136.415 C 186.691 137.064,186.638 137.074,190.289 132.708 C 191.387 131.394,193.237 129.241,194.398 127.923 C 195.560 126.605,196.748 125.164,197.039 124.720 C 199.447 121.045,201.771 122.827,202.946 129.248 C 204.465 137.555,202.700 136.799,221.158 137.052 C 238.932 137.295,237.636 137.492,240.590 134.102 C 243.138 131.178,248.387 125.324,252.632 120.673 C 254.670 118.440,257.887 114.892,259.781 112.791 C 261.675 110.689,265.277 106.710,267.787 103.949 C 270.297 101.188,272.877 98.319,273.520 97.574 C 274.164 96.829,275.432 95.416,276.337 94.433 C 277.243 93.451,280.185 90.196,282.876 87.201 C 285.567 84.205,289.837 79.490,292.365 76.722 C 294.893 73.953,297.761 70.782,298.740 69.673 C 299.718 68.565,302.133 65.879,304.106 63.703 C 306.079 61.528,308.531 58.768,309.554 57.571 C 312.424 54.216,314.567 53.322,315.677 55.017 C 316.561 56.365,315.857 57.732,312.273 61.628 C 310.525 63.530,307.498 66.861,305.548 69.030 C 297.755 77.699,296.465 79.131,293.946 81.911 C 292.505 83.500,289.340 87.036,286.911 89.769 C 284.482 92.501,282.347 94.870,282.166 95.033 C 281.986 95.196,280.838 96.464,279.615 97.850 C 278.391 99.236,275.188 102.772,272.495 105.708 C 266.073 112.710,256.269 123.528,250.977 129.451 C 249.822 130.744,248.197 132.559,247.366 133.486 C 244.447 136.738,244.629 137.291,248.611 137.281 C 263.846 137.245,307.457 136.631,310.788 136.406 C 314.496 136.155,315.359 136.181,316.719 136.586 C 318.006 136.970,319.102 137.024,322.461 136.869 C 330.936 136.477,342.334 136.080,352.713 135.814 C 365.238 135.493,366.816 135.269,370.824 133.235 L 373.523 131.866 376.483 132.009 C 380.196 132.187,381.764 132.825,381.764 134.157 C 381.764 135.689,380.663 136.050,374.006 136.700 C 370.771 137.016,367.045 137.413,365.725 137.582 C 364.406 137.751,359.869 138.019,355.644 138.178 C 351.418 138.337,344.759 138.670,340.845 138.918 C 336.931 139.166,330.126 139.489,325.723 139.636 C 319.340 139.849,317.446 140.006,316.383 140.413 C 315.153 140.884,312.158 140.935,278.428 141.063 C 235.601 141.226,240.821 140.662,236.471 145.599 C 234.841 147.450,232.555 149.973,231.393 151.206 C 230.231 152.438,228.629 154.209,227.835 155.141 C 227.040 156.073,224.388 158.998,221.942 161.642 C 219.496 164.285,216.634 167.452,215.581 168.680 C 209.844 175.377,208.131 174.919,206.553 166.270 C 205.603 161.056,205.101 158.692,204.429 156.264 C 204.046 154.878,203.535 152.676,203.295 151.371 C 202.804 148.712,201.240 142.963,200.766 142.078 C 200.273 141.157,198.826 140.845,195.046 140.845 C 188.972 140.845,189.290 140.617,180.178 151.520 C 177.399 154.844,175.231 157.374,169.864 163.554 C 168.010 165.688,164.426 169.875,161.898 172.859 C 159.370 175.842,156.168 179.577,154.781 181.158 C 152.543 183.711,149.454 187.299,139.588 198.814 C 131.985 207.687,132.460 206.793,132.605 211.958 C 132.709 215.672,132.428 216.111,130.404 215.396 C 129.515 215.083,127.618 214.974,123.038 214.974 C 115.216 214.974,115.938 215.650,115.938 208.326 C 115.938 199.550,116.532 200.070,106.272 199.858 C 100.258 199.733,98.727 199.618,98.294 199.259 C 96.943 198.137,96.961 198.544,96.961 168.299 L 96.961 139.692 96.287 138.909 C 95.367 137.839,88.063 137.127,70.571 136.400 C 63.772 136.117,55.477 135.547,55.124 135.338 C 55.027 135.280,52.364 135.093,49.205 134.921 C 46.047 134.750,42.626 134.476,41.603 134.313 C 40.580 134.149,36.371 133.614,32.251 133.123 C 24.014 132.143,21.718 131.639,20.739 130.597 C 18.630 128.352,24.066 127.091,35.937 127.070 C 43.670 127.056,44.731 127.265,42.323 128.330 C 39.814 129.440,40.504 130.114,44.945 130.893 C 47.437 131.330,49.831 131.541,65.530 132.706 C 69.036 132.966,73.306 133.372,75.019 133.608 C 79.367 134.207,94.261 134.529,95.419 134.050 C 97.013 133.389,96.943 135.988,96.956 77.256 C 96.969 20.124,96.941 21.281,98.313 20.202 L 99.116 19.570 189.528 19.570 C 268.484 19.570,280.047 19.625,280.783 20.006 M196.099 133.062 C 193.431 135.915,193.466 136.728,196.268 136.931 C 198.877 137.120,199.690 136.542,199.466 134.661 C 199.061 131.256,198.178 130.837,196.099 133.062 M134.031 140.338 C 132.505 141.107,132.548 140.266,132.551 169.336 C 132.555 198.328,132.529 197.806,133.953 197.354 C 134.653 197.132,138.930 192.576,143.378 187.314 C 147.445 182.503,152.188 176.969,156.412 172.110 C 160.780 167.084,162.667 164.880,165.159 161.891 C 166.219 160.620,170.232 155.932,174.076 151.473 C 182.329 141.900,182.339 141.886,181.660 141.206 C 181.219 140.766,179.589 140.692,166.269 140.509 C 158.075 140.396,147.635 140.228,143.069 140.136 C 136.738 140.007,134.592 140.055,134.031 140.338 M209.403 141.137 C 205.662 141.345,205.703 141.262,206.919 146.182 C 207.261 147.569,207.889 150.371,208.313 152.409 C 209.579 158.488,211.118 164.390,211.550 164.825 C 212.129 165.408,212.820 164.867,216.012 161.329 C 217.480 159.703,221.349 155.410,224.611 151.789 C 227.872 148.169,230.976 144.726,231.507 144.138 C 234.063 141.309,233.667 141.153,223.870 141.138 C 219.385 141.130,214.915 141.093,213.936 141.054 C 212.958 141.016,210.918 141.053,209.403 141.137 M213.000 253.222 C 208.318 254.205,205.311 257.843,205.363 262.462 C 205.421 267.669,208.476 270.445,216.547 272.629 C 221.158 273.876,221.794 274.395,221.794 276.908 C 221.794 282.471,212.617 281.310,210.688 275.504 C 210.128 273.817,209.340 273.091,208.069 273.091 C 205.746 273.091,205.189 274.298,205.189 279.333 C 205.189 285.083,206.044 286.342,209.436 285.583 C 210.820 285.273,211.234 285.314,213.473 285.984 C 221.224 288.304,228.125 283.987,228.157 276.798 C 228.183 271.052,224.745 267.561,217.238 265.711 C 212.961 264.656,211.712 263.798,211.712 261.909 C 211.712 259.552,214.539 258.288,217.790 259.191 C 218.927 259.506,219.875 260.339,222.271 263.124 C 223.894 265.011,226.277 264.411,226.842 261.972 C 228.082 256.620,226.367 253.109,222.880 253.863 C 221.760 254.105,221.046 254.074,219.618 253.718 C 217.163 253.107,214.500 252.907,213.000 253.222 M149.470 253.540 C 146.593 253.940,145.910 256.379,148.110 258.399 C 149.782 259.934,149.821 260.655,148.425 264.159 C 147.864 265.565,146.468 269.379,145.323 272.635 C 142.953 279.368,142.665 279.860,140.666 280.589 C 138.041 281.547,137.270 283.960,139.144 285.354 C 140.159 286.108,146.201 286.422,148.905 285.861 C 151.905 285.238,152.576 283.242,150.499 281.115 C 149.470 280.061,149.378 279.840,149.543 278.825 C 149.991 276.061,151.397 275.412,156.412 275.654 C 160.463 275.850,161.130 276.121,161.585 277.759 C 162.023 279.337,162.016 279.365,160.801 280.925 C 158.760 283.545,159.606 285.621,162.852 285.960 C 167.478 286.443,183.186 286.003,184.041 285.366 C 185.821 284.040,185.605 282.052,183.531 280.679 C 182.057 279.704,182.001 279.368,182.116 272.152 C 182.211 266.180,182.311 265.620,183.187 266.157 C 183.695 266.469,188.558 275.429,191.215 280.949 C 193.260 285.197,194.903 286.481,197.635 285.969 C 200.591 285.414,200.794 284.569,200.552 273.832 C 200.446 269.103,200.459 264.033,200.582 262.565 L 200.805 259.896 202.216 258.562 C 204.285 256.606,204.389 254.932,202.503 253.957 C 201.394 253.383,193.550 253.343,192.439 253.905 C 190.521 254.875,190.614 256.798,192.671 258.712 L 194.070 260.014 194.164 264.580 C 194.353 273.719,193.742 273.540,188.301 262.861 C 183.317 253.081,183.618 253.373,178.503 253.373 C 173.710 253.373,172.572 253.935,172.572 256.304 C 172.572 257.178,172.790 257.528,173.916 258.469 C 175.838 260.076,175.889 260.406,175.780 270.523 L 175.686 279.370 174.854 280.085 C 173.273 281.444,169.593 280.770,168.444 278.910 C 168.124 278.392,167.134 275.903,166.244 273.380 C 165.354 270.856,164.012 267.084,163.262 264.997 C 161.544 260.218,161.543 259.950,163.232 258.399 C 165.223 256.571,164.952 254.400,162.622 253.515 C 161.860 253.225,151.597 253.245,149.470 253.540 M231.960 253.433 C 229.525 253.904,229.207 256.627,231.357 258.603 L 232.913 260.033 233.000 269.288 C 233.095 279.465,233.048 279.801,231.392 280.824 C 229.701 281.869,229.258 283.666,230.391 284.881 C 232.550 287.198,249.141 286.373,254.189 283.697 C 263.560 278.730,263.347 260.506,253.863 255.758 C 250.022 253.836,237.014 252.454,231.960 253.433 M219.553 254.289 C 220.824 254.734,221.252 254.754,222.767 254.441 C 225.716 253.832,226.538 254.802,226.538 258.887 C 226.538 261.694,226.016 263.203,224.950 263.470 C 223.695 263.785,223.200 263.509,221.861 261.748 C 218.660 257.537,212.419 257.146,211.122 261.075 C 210.336 263.457,212.183 265.043,217.146 266.250 C 224.406 268.015,227.574 271.173,227.575 276.649 C 227.577 281.527,224.884 284.613,219.404 286.018 C 217.427 286.524,216.823 286.456,213.377 285.338 C 211.206 284.634,210.925 284.607,209.445 284.962 C 206.297 285.717,205.692 284.707,205.833 278.933 C 205.916 275.498,206.010 274.842,206.495 274.307 C 207.734 272.941,209.587 273.795,210.260 276.042 C 212.176 282.434,222.774 282.777,222.305 276.432 C 222.122 273.948,221.022 273.138,216.160 271.902 C 208.958 270.072,205.960 267.289,205.940 262.417 C 205.912 255.747,212.493 251.818,219.553 254.289 M162.766 254.251 C 164.310 255.050,164.422 256.674,163.010 257.783 C 160.577 259.694,160.590 259.156,162.824 265.456 C 168.534 281.559,167.954 280.470,171.312 281.374 C 172.889 281.798,174.555 281.402,175.522 280.372 C 176.195 279.656,176.212 279.487,176.355 271.942 C 176.577 260.232,176.521 259.899,173.945 257.769 C 172.950 256.946,172.874 255.360,173.789 254.531 C 174.313 254.057,174.967 253.952,177.866 253.876 C 183.316 253.735,182.580 252.989,188.776 264.928 C 194.257 275.489,194.464 275.571,194.735 267.279 C 194.951 260.687,194.817 259.986,193.006 258.240 C 190.031 255.373,191.278 254.005,196.984 253.880 C 203.192 253.744,204.976 255.358,201.729 258.174 L 200.297 259.417 200.148 271.585 L 200.000 283.753 199.177 284.575 C 196.885 286.864,194.143 285.507,191.830 280.939 C 181.400 260.337,181.552 260.465,181.497 272.232 C 181.464 279.462,181.591 280.114,183.243 281.208 C 185.098 282.436,185.210 284.238,183.487 285.129 C 182.684 285.544,181.885 285.586,177.931 285.419 C 172.558 285.193,173.172 285.194,167.087 285.404 C 160.118 285.646,158.273 284.053,161.768 280.813 C 163.127 279.553,162.236 276.143,160.380 275.495 C 159.060 275.035,151.867 275.075,150.933 275.547 C 148.817 276.618,148.282 279.748,149.926 281.432 C 151.687 283.235,151.169 284.953,148.727 285.412 C 146.301 285.867,140.002 285.429,139.333 284.758 C 137.989 283.413,138.752 281.725,140.987 281.099 C 142.981 280.540,143.329 279.942,146.074 272.330 C 151.056 258.516,150.864 259.484,148.880 258.171 C 146.981 256.915,146.865 255.027,148.639 254.255 C 150.045 253.644,161.585 253.641,162.766 254.251 M247.253 254.416 C 249.082 254.745,251.426 255.355,252.463 255.770 C 263.725 260.278,263.192 280.389,251.709 284.206 C 248.111 285.402,233.966 286.055,231.746 285.127 C 229.914 284.362,229.979 282.465,231.880 281.207 C 233.618 280.057,233.699 279.473,233.596 268.918 L 233.506 259.737 231.950 258.306 C 229.938 256.457,229.850 255.045,231.697 254.241 C 233.246 253.567,243.157 253.679,247.253 254.416 M240.777 258.646 C 239.368 259.359,239.297 259.874,239.294 269.385 C 239.291 281.499,239.217 281.332,244.419 281.017 C 251.874 280.567,254.559 277.565,254.559 269.681 C 254.559 263.850,253.290 261.278,249.514 259.449 C 247.235 258.346,242.271 257.890,240.777 258.646 M249.234 260.028 C 252.993 261.879,253.966 263.863,253.966 269.681 C 253.966 277.361,251.525 280.036,244.160 280.426 L 241.173 280.584 240.527 279.763 C 239.895 278.959,239.881 278.747,239.881 269.628 L 239.881 260.314 240.651 259.545 C 241.804 258.391,246.439 258.653,249.234 260.028 M154.794 261.799 C 154.019 263.248,152.378 268.420,152.463 269.149 C 152.587 270.217,153.601 270.710,155.671 270.710 C 159.099 270.710,159.640 269.422,158.040 265.070 C 156.646 261.281,155.624 260.250,154.794 261.799 M157.369 264.939 C 159.038 269.072,158.655 270.126,155.484 270.126 C 152.736 270.126,152.515 269.498,153.915 265.664 C 155.420 261.539,155.951 261.428,157.369 264.939 " stroke="none" fill="#a4d4e7" fill-rule="evenodd"></path><path id="path1" d="M99.270 21.070 C 98.165 21.714,98.150 22.492,98.148 78.369 C 98.147 137.238,98.231 133.942,96.695 135.332 C 95.971 135.987,95.888 136.642,96.498 136.876 C 98.053 137.473,97.986 136.215,98.147 167.894 L 98.295 197.167 98.970 197.842 C 99.766 198.639,111.071 199.059,113.357 198.377 C 115.103 197.855,115.048 198.841,115.053 168.328 C 115.056 146.434,115.140 139.938,115.426 139.362 C 116.244 137.716,117.116 137.586,125.274 137.888 C 131.448 138.117,132.751 138.095,133.092 137.754 C 133.972 136.874,132.424 136.634,125.015 136.501 C 117.233 136.361,116.192 136.157,115.424 134.618 C 115.132 134.033,115.069 123.860,115.125 86.368 L 115.196 38.860 115.872 38.185 L 116.547 37.509 198.219 37.361 C 276.116 37.220,279.914 37.188,280.419 36.683 C 280.898 36.204,280.949 35.473,280.949 29.022 L 280.949 21.890 280.249 21.323 C 279.445 20.672,100.383 20.421,99.270 21.070 M198.394 126.438 C 197.561 127.324,197.686 128.145,198.708 128.504 C 200.223 129.037,200.979 127.869,200.138 126.296 C 199.728 125.531,199.206 125.573,198.394 126.438 M27.977 128.695 C 22.370 129.286,22.520 130.531,28.296 131.335 C 31.432 131.771,36.538 131.753,35.730 131.309 C 35.404 131.130,34.663 130.531,34.082 129.979 C 33.081 129.027,31.519 128.344,30.543 128.432 C 30.297 128.454,29.143 128.572,27.977 128.695 M375.002 133.744 C 373.607 134.601,376.336 135.329,378.235 134.607 C 378.825 134.383,378.955 134.211,378.717 133.972 C 378.255 133.511,375.644 133.350,375.002 133.744 M188.713 137.305 C 188.071 137.817,187.046 138.492,186.434 138.805 C 185.526 139.270,185.322 139.536,185.322 140.258 C 185.322 141.361,185.550 141.360,187.298 140.252 C 188.069 139.763,188.841 139.362,189.013 139.361 C 190.048 139.358,191.206 138.195,190.988 137.378 C 190.682 136.232,190.083 136.213,188.713 137.305 M201.517 137.425 C 200.337 139.225,202.910 142.231,204.134 140.483 C 204.810 139.519,204.710 139.045,203.572 137.806 C 202.368 136.496,202.152 136.455,201.517 137.425 M240.453 137.415 C 239.894 137.819,238.836 138.516,238.102 138.964 C 235.238 140.713,235.711 141.990,238.601 140.313 C 239.387 139.857,240.430 139.286,240.919 139.043 C 241.452 138.778,241.849 138.324,241.908 137.910 C 242.069 136.788,241.562 136.615,240.453 137.415 M209.518 168.599 C 209.308 169.146,209.914 170.547,210.434 170.716 C 210.923 170.875,212.009 169.726,212.009 169.049 C 212.009 168.148,209.842 167.756,209.518 168.599 M213.491 254.963 C 209.537 255.800,207.209 258.566,207.188 262.452 C 207.164 266.851,209.687 268.895,217.939 271.162 C 221.276 272.079,222.516 272.843,223.124 274.357 C 226.567 282.933,213.042 285.531,209.276 277.017 C 207.988 274.106,206.968 275.198,206.968 279.490 C 206.968 283.454,207.327 284.021,209.510 283.505 C 211.062 283.139,211.566 283.225,214.318 284.325 C 219.854 286.538,226.544 282.317,226.537 276.615 C 226.531 271.985,223.684 269.334,216.692 267.447 C 210.543 265.788,208.240 263.079,210.219 259.834 C 212.679 255.799,219.667 256.311,222.697 260.748 C 224.273 263.056,225.475 262.085,225.301 258.647 C 225.157 255.790,224.783 255.390,222.720 255.884 C 221.388 256.204,221.008 256.174,219.331 255.616 C 217.152 254.891,214.979 254.648,213.491 254.963 M149.815 255.309 C 148.830 255.705,148.986 256.635,150.159 257.360 C 151.358 258.100,151.856 259.306,151.535 260.684 C 151.198 262.126,150.145 265.218,149.724 266.006 C 149.277 266.841,147.128 272.712,145.684 277.040 C 144.533 280.492,143.544 281.877,142.009 282.184 C 140.740 282.438,140.090 283.262,140.735 283.797 C 141.528 284.455,148.363 284.381,149.037 283.707 C 149.511 283.233,149.476 283.132,148.455 282.001 C 145.885 279.157,148.405 274.332,152.722 273.831 C 155.094 273.555,160.353 273.941,161.376 274.466 C 163.786 275.702,164.612 280.120,162.783 281.991 C 161.032 283.783,161.890 284.361,166.291 284.354 C 170.639 284.348,171.898 283.446,169.356 282.158 C 167.285 281.109,165.790 278.553,164.567 273.972 C 164.372 273.243,163.708 271.446,163.091 269.978 C 159.430 261.274,159.026 258.738,161.089 257.400 C 162.385 256.560,162.525 255.708,161.434 255.293 C 160.483 254.931,150.720 254.945,149.815 255.309 M175.315 255.448 C 174.414 256.095,174.457 256.260,175.871 257.606 C 177.496 259.152,177.623 260.047,177.586 269.681 C 177.550 278.812,177.351 280.703,176.335 281.542 C 175.940 281.868,175.316 282.381,174.948 282.682 C 173.690 283.710,174.741 284.194,178.484 284.310 C 183.197 284.456,184.035 283.771,181.690 281.690 L 180.430 280.572 180.430 271.704 C 180.430 263.713,180.482 262.756,180.956 262.033 C 182.306 259.972,183.365 261.392,189.304 273.218 C 194.589 283.740,194.810 284.062,196.768 284.062 C 198.870 284.062,198.797 284.500,198.962 270.983 L 199.110 258.883 200.433 257.535 C 202.302 255.632,201.841 255.190,197.840 255.055 C 193.370 254.903,192.244 255.714,194.342 257.571 C 195.892 258.943,196.066 260.063,195.946 267.886 C 195.839 274.885,195.697 275.766,194.611 276.183 C 193.341 276.671,191.579 273.788,185.197 260.786 C 183.996 258.340,182.719 256.071,182.359 255.745 C 181.452 254.925,176.344 254.709,175.315 255.448 M232.839 255.309 C 231.873 255.698,232.020 256.596,233.197 257.495 C 234.730 258.664,234.837 259.460,234.837 269.681 C 234.837 279.885,234.730 280.687,233.196 281.911 C 230.435 284.114,234.531 285.006,242.995 284.045 C 244.463 283.879,246.876 283.628,248.357 283.489 C 253.026 283.051,255.738 281.276,257.639 277.412 C 261.732 269.099,258.400 258.628,251.037 256.670 C 245.432 255.179,235.088 254.406,232.839 255.309 M249.523 257.971 C 257.197 261.633,258.567 274.921,251.806 280.104 C 247.751 283.213,239.781 283.355,238.522 280.342 C 237.898 278.849,237.910 260.485,238.536 258.988 C 239.449 256.802,245.834 256.211,249.523 257.971 M157.107 259.550 C 157.976 260.475,160.413 267.557,160.414 269.162 C 160.416 271.429,159.113 272.057,154.811 271.862 C 150.461 271.664,150.139 270.658,152.395 264.319 C 154.270 259.050,155.484 257.822,157.107 259.550 " stroke="none" fill="#204693" fill-rule="evenodd"></path><path id="path2" d="M98.313 20.202 C 96.941 21.281,96.969 20.124,96.956 77.256 C 96.943 135.988,97.013 133.389,95.419 134.050 C 94.261 134.529,79.367 134.207,75.019 133.608 C 73.306 133.372,69.036 132.966,65.530 132.706 C 49.831 131.541,47.437 131.330,44.945 130.893 C 40.504 130.114,39.814 129.440,42.323 128.330 C 44.731 127.265,43.670 127.056,35.937 127.070 C 24.066 127.091,18.630 128.352,20.739 130.597 C 21.718 131.639,24.014 132.143,32.251 133.123 C 36.371 133.614,40.580 134.149,41.603 134.313 C 42.626 134.476,46.047 134.750,49.205 134.921 C 52.364 135.093,55.027 135.280,55.124 135.338 C 55.477 135.547,63.772 136.117,70.571 136.400 C 88.063 137.127,95.367 137.839,96.287 138.909 L 96.961 139.692 96.961 168.299 C 96.961 198.544,96.943 198.137,98.294 199.259 C 98.727 199.618,100.258 199.733,106.272 199.858 C 116.532 200.070,115.938 199.550,115.938 208.326 C 115.938 215.650,115.216 214.974,123.038 214.974 C 127.618 214.974,129.515 215.083,130.404 215.396 C 132.428 216.111,132.709 215.672,132.605 211.958 C 132.460 206.793,131.985 207.687,139.588 198.814 C 149.454 187.299,152.543 183.711,154.781 181.158 C 156.168 179.577,159.370 175.842,161.898 172.859 C 164.426 169.875,168.010 165.688,169.864 163.554 C 175.231 157.374,177.399 154.844,180.178 151.520 C 189.290 140.617,188.972 140.845,195.046 140.845 C 198.826 140.845,200.273 141.157,200.766 142.078 C 201.240 142.963,202.804 148.712,203.295 151.371 C 203.535 152.676,204.046 154.878,204.429 156.264 C 205.101 158.692,205.603 161.056,206.553 166.270 C 208.131 174.919,209.844 175.377,215.581 168.680 C 216.634 167.452,219.496 164.285,221.942 161.642 C 224.388 158.998,227.040 156.073,227.835 155.141 C 228.629 154.209,230.231 152.438,231.393 151.206 C 232.555 149.973,234.841 147.450,236.471 145.599 C 240.821 140.662,235.601 141.226,278.428 141.063 C 312.158 140.935,315.153 140.884,316.383 140.413 C 317.446 140.006,319.340 139.849,325.723 139.636 C 330.126 139.489,336.931 139.166,340.845 138.918 C 344.759 138.670,351.418 138.337,355.644 138.178 C 359.869 138.019,364.406 137.751,365.725 137.582 C 367.045 137.413,370.771 137.016,374.006 136.700 C 380.663 136.050,381.764 135.689,381.764 134.157 C 381.764 132.825,380.196 132.187,376.483 132.009 L 373.523 131.866 370.824 133.235 C 366.816 135.269,365.238 135.493,352.713 135.814 C 342.334 136.080,330.936 136.477,322.461 136.869 C 319.102 137.024,318.006 136.970,316.719 136.586 C 315.359 136.181,314.496 136.155,310.788 136.406 C 307.457 136.631,263.846 137.245,248.611 137.281 C 244.629 137.291,244.447 136.738,247.366 133.486 C 248.197 132.559,249.822 130.744,250.977 129.451 C 256.269 123.528,266.073 112.710,272.495 105.708 C 275.188 102.772,278.391 99.236,279.615 97.850 C 280.838 96.464,281.986 95.196,282.166 95.033 C 282.347 94.870,284.482 92.501,286.911 89.769 C 289.340 87.036,292.505 83.500,293.946 81.911 C 296.465 79.131,297.755 77.699,305.548 69.030 C 307.498 66.861,310.525 63.530,312.273 61.628 C 315.857 57.732,316.561 56.365,315.677 55.017 C 314.567 53.322,312.424 54.216,309.554 57.571 C 308.531 58.768,306.079 61.528,304.106 63.703 C 302.133 65.879,299.718 68.565,298.740 69.673 C 297.761 70.782,294.893 73.953,292.365 76.722 C 289.837 79.490,285.567 84.205,282.876 87.201 C 280.185 90.196,277.243 93.451,276.337 94.433 C 275.432 95.416,274.164 96.829,273.520 97.574 C 272.877 98.319,270.297 101.188,267.787 103.949 C 265.277 106.710,261.675 110.689,259.781 112.791 C 257.887 114.892,254.670 118.440,252.632 120.673 C 248.387 125.324,243.138 131.178,240.590 134.102 C 237.636 137.492,238.932 137.295,221.158 137.052 C 202.700 136.799,204.465 137.555,202.946 129.248 C 201.771 122.827,199.447 121.045,197.039 124.720 C 196.748 125.164,195.560 126.605,194.398 127.923 C 193.237 129.241,191.387 131.394,190.289 132.708 C 186.638 137.074,186.691 137.064,171.386 136.415 C 167.064 136.232,159.726 135.948,155.078 135.785 C 132.459 134.988,133.534 135.111,132.826 133.249 C 132.457 132.278,132.456 58.994,132.826 57.403 C 132.973 56.766,133.440 55.899,133.863 55.476 L 134.632 54.707 215.984 54.631 C 280.398 54.571,297.394 54.478,297.615 54.186 C 298.100 53.544,297.718 39.199,297.202 38.683 C 296.852 38.332,295.610 38.250,290.639 38.246 C 281.881 38.240,282.325 38.739,282.300 28.880 C 282.290 24.894,282.154 21.958,281.955 21.384 C 281.269 19.417,289.042 19.570,189.528 19.570 L 99.116 19.570 98.313 20.202 M280.249 21.323 L 280.949 21.890 280.949 29.022 C 280.949 35.473,280.898 36.204,280.419 36.683 C 279.914 37.188,276.116 37.220,198.219 37.361 L 116.547 37.509 115.872 38.185 L 115.196 38.860 115.125 86.368 C 115.069 123.860,115.132 134.033,115.424 134.618 C 116.192 136.157,117.233 136.361,125.015 136.501 C 132.424 136.634,133.972 136.874,133.092 137.754 C 132.751 138.095,131.448 138.117,125.274 137.888 C 117.116 137.586,116.244 137.716,115.426 139.362 C 115.140 139.938,115.056 146.434,115.053 168.328 C 115.048 198.841,115.103 197.855,113.357 198.377 C 111.071 199.059,99.766 198.639,98.970 197.842 L 98.295 197.167 98.147 167.894 C 97.986 136.215,98.053 137.473,96.498 136.876 C 95.888 136.642,95.971 135.987,96.695 135.332 C 98.231 133.942,98.147 137.238,98.148 78.369 C 98.150 22.492,98.165 21.714,99.270 21.070 C 100.383 20.421,279.445 20.672,280.249 21.323 M200.138 126.296 C 200.979 127.869,200.223 129.037,198.708 128.504 C 197.686 128.145,197.561 127.324,198.394 126.438 C 199.206 125.573,199.728 125.531,200.138 126.296 M32.009 128.684 C 32.569 128.844,33.502 129.427,34.082 129.979 C 34.663 130.531,35.404 131.130,35.730 131.309 C 37.188 132.110,27.569 131.537,24.961 130.668 C 22.277 129.773,24.196 129.004,30.543 128.432 C 30.789 128.410,31.448 128.523,32.009 128.684 M198.991 132.468 C 200.264 135.804,199.436 137.160,196.268 136.931 C 193.466 136.728,193.431 135.915,196.099 133.062 C 197.627 131.427,198.524 131.243,198.991 132.468 M378.717 133.972 C 378.955 134.211,378.825 134.383,378.235 134.607 C 376.336 135.329,373.607 134.601,375.002 133.744 C 375.644 133.350,378.255 133.511,378.717 133.972 M190.988 137.378 C 191.206 138.195,190.048 139.358,189.013 139.361 C 188.841 139.362,188.069 139.763,187.298 140.252 C 185.550 141.360,185.322 141.361,185.322 140.258 C 185.322 139.536,185.526 139.270,186.434 138.805 C 187.046 138.492,188.071 137.817,188.713 137.305 C 190.083 136.213,190.682 136.232,190.988 137.378 M203.572 137.806 C 204.710 139.045,204.810 139.519,204.134 140.483 C 202.910 142.231,200.337 139.225,201.517 137.425 C 202.152 136.455,202.368 136.496,203.572 137.806 M241.908 137.910 C 241.849 138.324,241.452 138.778,240.919 139.043 C 240.430 139.286,239.387 139.857,238.601 140.313 C 235.711 141.990,235.238 140.713,238.102 138.964 C 238.836 138.516,239.894 137.819,240.453 137.415 C 241.562 136.615,242.069 136.788,241.908 137.910 M166.269 140.509 C 179.589 140.692,181.219 140.766,181.660 141.206 C 182.339 141.886,182.329 141.900,174.076 151.473 C 170.232 155.932,166.219 160.620,165.159 161.891 C 162.667 164.880,160.780 167.084,156.412 172.110 C 152.188 176.969,147.445 182.503,143.378 187.314 C 136.053 195.979,133.748 198.125,132.942 197.023 C 132.383 196.259,132.364 142.542,132.922 141.444 C 133.647 140.017,134.132 139.955,143.069 140.136 C 147.635 140.228,158.075 140.396,166.269 140.509 M223.870 141.138 C 233.667 141.153,234.063 141.309,231.507 144.138 C 230.976 144.726,227.872 148.169,224.611 151.789 C 210.035 167.967,211.773 166.950,210.115 160.267 C 209.549 157.984,208.738 154.448,208.313 152.409 C 207.889 150.371,207.261 147.569,206.919 146.182 C 205.703 141.262,205.662 141.345,209.403 141.137 C 210.918 141.053,212.958 141.016,213.936 141.054 C 214.915 141.093,219.385 141.130,223.870 141.138 M211.342 168.311 C 212.183 168.537,212.208 169.408,211.397 170.219 C 210.659 170.957,210.205 170.854,209.709 169.837 C 209.035 168.456,209.669 167.863,211.342 168.311 M212.157 254.036 C 207.876 255.580,205.922 258.213,205.940 262.417 C 205.960 267.289,208.958 270.072,216.160 271.902 C 221.022 273.138,222.122 273.948,222.305 276.432 C 222.774 282.777,212.176 282.434,210.260 276.042 C 209.587 273.795,207.734 272.941,206.495 274.307 C 206.010 274.842,205.916 275.498,205.833 278.933 C 205.692 284.707,206.297 285.717,209.445 284.962 C 210.925 284.607,211.206 284.634,213.377 285.338 C 216.823 286.456,217.427 286.524,219.404 286.018 C 224.884 284.613,227.577 281.527,227.575 276.649 C 227.574 271.173,224.406 268.015,217.146 266.250 C 212.183 265.043,210.336 263.457,211.122 261.075 C 212.419 257.146,218.660 257.537,221.861 261.748 C 223.200 263.509,223.695 263.785,224.950 263.470 C 226.016 263.203,226.538 261.694,226.538 258.887 C 226.538 254.802,225.716 253.832,222.767 254.441 C 221.252 254.754,220.824 254.734,219.553 254.289 C 217.310 253.504,213.952 253.389,212.157 254.036 M148.639 254.255 C 146.865 255.027,146.981 256.915,148.880 258.171 C 150.864 259.484,151.056 258.516,146.074 272.330 C 143.329 279.942,142.981 280.540,140.987 281.099 C 138.752 281.725,137.989 283.413,139.333 284.758 C 140.002 285.429,146.301 285.867,148.727 285.412 C 151.169 284.953,151.687 283.235,149.926 281.432 C 148.282 279.748,148.817 276.618,150.933 275.547 C 151.867 275.075,159.060 275.035,160.380 275.495 C 162.236 276.143,163.127 279.553,161.768 280.813 C 158.273 284.053,160.118 285.646,167.087 285.404 C 173.172 285.194,172.558 285.193,177.931 285.419 C 181.885 285.586,182.684 285.544,183.487 285.129 C 185.210 284.238,185.098 282.436,183.243 281.208 C 181.591 280.114,181.464 279.462,181.497 272.232 C 181.552 260.465,181.400 260.337,191.830 280.939 C 194.143 285.507,196.885 286.864,199.177 284.575 L 200.000 283.753 200.148 271.585 L 200.297 259.417 201.729 258.174 C 204.976 255.358,203.192 253.744,196.984 253.880 C 191.278 254.005,190.031 255.373,193.006 258.240 C 194.817 259.986,194.951 260.687,194.735 267.279 C 194.464 275.571,194.257 275.489,188.776 264.928 C 182.580 252.989,183.316 253.735,177.866 253.876 C 174.967 253.952,174.313 254.057,173.789 254.531 C 172.874 255.360,172.950 256.946,173.945 257.769 C 176.521 259.899,176.577 260.232,176.355 271.942 C 176.212 279.487,176.195 279.656,175.522 280.372 C 174.555 281.402,172.889 281.798,171.312 281.374 C 168.324 280.570,168.062 280.208,165.740 273.672 C 160.074 257.722,160.433 259.807,163.010 257.783 C 164.422 256.674,164.310 255.050,162.766 254.251 C 161.585 253.641,150.045 253.644,148.639 254.255 M231.697 254.241 C 229.850 255.045,229.938 256.457,231.950 258.306 L 233.506 259.737 233.596 268.918 C 233.699 279.473,233.618 280.057,231.880 281.207 C 229.979 282.465,229.914 284.362,231.746 285.127 C 233.966 286.055,248.111 285.402,251.709 284.206 C 263.192 280.389,263.725 260.278,252.463 255.770 C 248.069 254.011,234.518 253.013,231.697 254.241 M219.331 255.616 C 221.008 256.174,221.388 256.204,222.720 255.884 C 224.783 255.390,225.157 255.790,225.301 258.647 C 225.475 262.085,224.273 263.056,222.697 260.748 C 219.667 256.311,212.679 255.799,210.219 259.834 C 208.240 263.079,210.543 265.788,216.692 267.447 C 223.684 269.334,226.531 271.985,226.537 276.615 C 226.544 282.317,219.854 286.538,214.318 284.325 C 211.566 283.225,211.062 283.139,209.510 283.505 C 207.327 284.021,206.968 283.454,206.968 279.490 C 206.968 275.198,207.988 274.106,209.276 277.017 C 213.042 285.531,226.567 282.933,223.124 274.357 C 222.516 272.843,221.276 272.079,217.939 271.162 C 209.687 268.895,207.164 266.851,207.188 262.452 C 207.221 256.436,212.635 253.388,219.331 255.616 M161.434 255.293 C 162.525 255.708,162.385 256.560,161.089 257.400 C 159.026 258.738,159.430 261.274,163.091 269.978 C 163.708 271.446,164.372 273.243,164.567 273.972 C 165.790 278.553,167.285 281.109,169.356 282.158 C 171.898 283.446,170.639 284.348,166.291 284.354 C 161.890 284.361,161.032 283.783,162.783 281.991 C 164.612 280.120,163.786 275.702,161.376 274.466 C 160.353 273.941,155.094 273.555,152.722 273.831 C 148.405 274.332,145.885 279.157,148.455 282.001 C 149.476 283.132,149.511 283.233,149.037 283.707 C 148.363 284.381,141.528 284.455,140.735 283.797 C 140.090 283.262,140.740 282.438,142.009 282.184 C 143.544 281.877,144.533 280.492,145.684 277.040 C 147.128 272.712,149.277 266.841,149.724 266.006 C 150.145 265.218,151.198 262.126,151.535 260.684 C 151.856 259.306,151.358 258.100,150.159 257.360 C 148.986 256.635,148.830 255.705,149.815 255.309 C 150.720 254.945,160.483 254.931,161.434 255.293 M182.359 255.745 C 182.719 256.071,183.996 258.340,185.197 260.786 C 191.579 273.788,193.341 276.671,194.611 276.183 C 195.697 275.766,195.839 274.885,195.946 267.886 C 196.066 260.063,195.892 258.943,194.342 257.571 C 192.244 255.714,193.370 254.903,197.840 255.055 C 201.841 255.190,202.302 255.632,200.433 257.535 L 199.110 258.883 198.962 270.983 C 198.797 284.500,198.870 284.062,196.768 284.062 C 194.810 284.062,194.589 283.740,189.304 273.218 C 183.365 261.392,182.306 259.972,180.956 262.033 C 180.482 262.756,180.430 263.713,180.430 271.704 L 180.430 280.572 181.690 281.690 C 184.035 283.771,183.197 284.456,178.484 284.310 C 174.741 284.194,173.690 283.710,174.948 282.682 C 175.316 282.381,175.940 281.868,176.335 281.542 C 177.351 280.703,177.550 278.812,177.586 269.681 C 177.623 260.047,177.496 259.152,175.871 257.606 C 174.457 256.260,174.414 256.095,175.315 255.448 C 176.344 254.709,181.452 254.925,182.359 255.745 M246.108 255.632 C 254.093 257.117,256.412 258.698,258.446 264.040 C 261.927 273.183,257.002 282.677,248.357 283.489 C 246.876 283.628,244.463 283.879,242.995 284.045 C 234.531 285.006,230.435 284.114,233.196 281.911 C 234.730 280.687,234.837 279.885,234.837 269.681 C 234.837 259.460,234.730 258.664,233.197 257.495 C 232.020 256.596,231.873 255.698,232.839 255.309 C 234.215 254.757,242.483 254.957,246.108 255.632 M239.944 257.526 C 238.191 258.288,238.102 258.872,238.102 269.681 C 238.102 282.451,238.067 282.367,243.540 282.409 C 252.115 282.473,256.078 278.154,255.847 268.990 C 255.699 263.105,253.971 260.094,249.523 257.971 C 247.340 256.929,241.899 256.677,239.944 257.526 M246.513 258.554 C 252.221 259.488,254.559 262.721,254.559 269.681 C 254.559 277.565,251.874 280.567,244.419 281.017 C 239.217 281.332,239.291 281.499,239.294 269.385 C 239.298 257.633,239.455 257.398,246.513 258.554 M154.636 259.526 C 153.754 260.288,150.927 267.801,150.927 269.382 C 150.927 271.028,152.035 271.735,154.811 271.862 C 160.829 272.135,161.473 270.960,159.085 264.072 C 157.317 258.973,156.381 258.017,154.636 259.526 M156.684 261.898 C 157.606 263.314,158.961 267.570,158.873 268.769 C 158.763 270.250,158.003 270.710,155.671 270.710 C 152.224 270.710,151.845 269.804,153.429 265.351 C 155.003 260.925,155.623 260.267,156.684 261.898 " stroke="none" fill="#729fc9" fill-rule="evenodd"></path><path id="path3" d="M97.653 18.700 C 95.298 19.865,95.478 15.446,95.478 72.163 C 95.478 122.784,95.447 124.454,94.485 124.582 C 94.298 124.607,90.608 124.671,86.286 124.725 C 81.964 124.778,77.695 124.848,76.798 124.880 C 75.901 124.912,66.961 124.916,56.931 124.889 C 26.668 124.807,17.791 125.905,17.791 129.733 C 17.791 131.842,20.561 133.165,26.538 133.910 C 28.495 134.154,32.632 134.690,35.730 135.101 C 45.809 136.437,58.170 137.430,75.908 138.328 C 88.905 138.986,94.244 139.484,94.854 140.094 C 95.282 140.522,95.345 143.486,95.478 169.692 C 95.618 197.163,95.657 198.859,96.163 199.604 C 97.181 201.103,98.412 201.334,105.385 201.334 C 113.874 201.334,113.095 200.549,113.135 209.159 C 113.178 218.283,112.795 217.935,122.775 217.938 C 130.782 217.940,129.984 217.119,130.180 225.550 C 130.347 232.773,130.507 233.604,131.847 234.214 C 133.174 234.819,315.067 234.697,315.993 234.091 C 317.645 233.008,317.569 235.241,317.569 187.889 C 317.569 163.850,317.654 143.755,317.758 143.234 C 318.118 141.434,318.391 141.382,328.920 141.105 C 334.174 140.966,340.133 140.716,342.161 140.549 C 344.190 140.382,349.794 140.114,354.615 139.954 C 370.441 139.427,381.883 137.807,383.401 135.878 C 385.915 132.682,382.815 130.791,373.807 130.026 C 370.845 129.775,367.420 129.405,366.197 129.203 C 362.899 128.660,342.307 128.696,340.054 129.248 C 338.713 129.577,338.095 129.590,336.992 129.312 C 334.198 128.609,329.726 128.887,329.726 129.765 C 329.726 130.555,331.248 130.828,334.766 130.670 C 337.565 130.545,338.815 130.641,341.735 131.206 C 343.692 131.584,347.228 132.193,349.592 132.557 C 356.913 133.687,356.198 133.826,339.807 134.465 C 333.692 134.703,326.486 134.984,323.795 135.088 C 317.674 135.326,317.182 134.992,317.975 131.134 C 318.250 129.794,318.245 129.080,317.949 127.798 C 317.654 126.524,317.577 118.294,317.595 90.147 L 317.618 54.126 316.710 53.314 L 315.802 52.503 309.009 52.688 L 302.215 52.872 301.441 52.098 L 300.667 51.324 300.667 45.074 C 300.667 35.396,301.037 35.784,291.607 35.582 C 286.494 35.472,284.583 35.333,284.299 35.049 C 284.015 34.765,283.875 32.862,283.766 27.784 C 283.600 20.093,283.449 19.457,281.584 18.572 C 280.646 18.127,273.186 18.087,189.725 18.088 L 98.888 18.088 97.653 18.700 M280.772 19.352 C 282.610 20.297,282.715 20.750,282.876 28.477 C 283.065 37.509,282.166 36.578,290.884 36.768 C 299.830 36.963,298.990 36.114,299.185 45.152 C 299.390 54.696,299.293 54.561,305.944 54.556 C 308.685 54.554,310.481 54.409,311.463 54.111 C 315.994 52.736,317.349 54.165,316.128 59.033 C 315.605 61.119,315.579 63.085,315.609 97.606 L 315.641 133.981 316.263 134.819 C 317.404 136.357,317.935 136.400,330.062 135.933 C 336.156 135.698,345.878 135.376,351.668 135.218 C 362.345 134.925,365.132 134.613,366.158 133.595 C 367.055 132.705,365.398 132.227,359.455 131.660 C 356.293 131.359,355.434 131.147,355.690 130.732 C 355.907 130.381,360.729 130.416,363.529 130.790 C 364.752 130.953,368.821 131.190,372.572 131.317 C 380.024 131.569,381.911 131.981,382.465 133.480 C 383.346 135.860,381.454 136.592,371.831 137.594 C 361.330 138.686,360.492 138.753,357.153 138.764 C 355.360 138.771,350.623 138.982,346.627 139.234 C 342.632 139.487,334.692 139.859,328.984 140.062 C 317.814 140.459,317.452 140.517,316.261 142.127 L 315.641 142.964 315.583 186.605 C 315.551 210.607,315.518 230.478,315.509 230.764 C 315.500 231.049,315.226 231.549,314.901 231.875 C 314.075 232.700,133.536 232.827,132.712 232.002 C 132.163 231.453,132.189 231.802,132.138 224.414 C 132.082 216.271,132.314 216.461,122.403 216.458 C 116.348 216.457,116.256 216.447,115.435 215.742 L 114.603 215.027 114.455 208.339 C 114.265 199.747,115.208 200.633,106.055 200.445 C 98.318 200.285,97.805 200.182,96.897 198.592 C 96.597 198.066,96.485 191.756,96.368 168.765 L 96.219 139.606 95.577 139.087 C 94.646 138.333,88.351 137.821,67.881 136.833 C 62.895 136.593,57.758 136.261,56.465 136.096 C 55.172 135.931,51.779 135.660,48.925 135.494 C 46.071 135.327,40.934 134.807,37.509 134.337 C 34.085 133.867,30.348 133.398,29.207 133.295 C 21.144 132.567,17.153 130.340,20.261 128.304 C 23.435 126.224,53.588 125.077,56.915 126.909 C 57.558 127.263,55.526 127.776,52.039 128.141 C 48.040 128.558,45.588 129.059,45.446 129.486 C 45.146 130.391,48.835 130.929,61.379 131.807 C 65.048 132.064,70.586 132.544,73.684 132.873 C 82.649 133.826,94.910 134.000,95.724 133.186 L 96.348 132.563 96.373 77.920 C 96.401 16.856,96.267 20.401,98.591 19.388 C 99.867 18.832,279.691 18.797,280.772 19.352 M94.608 127.458 C 95.636 128.290,95.812 131.319,94.887 132.245 C 94.122 133.010,85.529 132.930,77.242 132.081 C 74.959 131.847,69.755 131.384,65.678 131.053 C 53.532 130.065,53.258 129.751,63.746 128.834 C 66.597 128.585,69.800 128.234,70.863 128.054 C 71.925 127.874,76.397 127.678,80.801 127.617 C 87.275 127.528,92.278 127.270,93.740 126.950 C 93.845 126.927,94.235 127.156,94.608 127.458 M322.090 128.994 C 320.489 129.637,321.770 130.264,324.381 130.114 C 326.299 130.003,326.650 129.443,325.074 129.005 C 323.734 128.633,322.995 128.630,322.090 128.994 M212.750 252.241 C 211.028 252.627,210.022 253.122,207.986 254.582 C 205.345 256.477,205.408 256.465,204.951 255.203 C 204.020 252.627,199.613 251.637,193.477 252.625 C 189.663 253.240,188.733 256.551,191.623 259.225 L 193.180 260.664 193.180 264.333 C 193.180 270.017,192.939 269.866,188.724 261.538 C 184.216 252.634,183.887 252.340,178.412 252.337 C 173.012 252.334,171.534 253.172,171.534 256.239 C 171.534 258.140,171.594 258.232,173.933 259.930 L 174.796 260.556 174.768 269.658 C 174.736 279.932,174.769 279.779,172.572 279.722 C 169.899 279.652,169.001 278.654,167.534 274.129 C 167.165 272.987,166.012 269.747,164.973 266.927 C 162.726 260.829,162.700 260.556,164.246 259.143 C 166.188 257.368,166.155 254.587,164.173 253.108 C 163.301 252.457,150.278 252.124,148.230 252.700 C 145.278 253.530,144.894 257.097,147.510 259.380 C 148.811 260.515,148.813 260.496,147.086 264.937 C 146.452 266.568,145.243 269.904,144.399 272.350 C 142.327 278.355,141.966 278.960,140.043 279.670 C 136.149 281.106,135.864 285.682,139.604 286.721 C 141.047 287.121,147.830 287.113,149.719 286.708 C 152.794 286.048,153.757 283.025,151.668 280.584 C 149.344 277.870,150.550 276.649,155.558 276.649 C 160.719 276.649,161.939 277.792,159.674 280.504 C 157.736 282.823,158.544 285.998,161.252 286.710 C 163.163 287.213,182.854 287.061,184.172 286.534 C 186.952 285.422,187.101 281.498,184.423 279.960 C 183.157 279.234,182.950 278.460,182.950 274.449 C 182.950 267.139,182.939 267.133,188.287 277.399 C 193.257 286.940,193.207 286.885,196.738 286.871 C 201.590 286.853,201.652 286.666,201.613 271.963 L 201.583 260.499 202.365 259.827 C 203.920 258.489,204.204 258.814,204.362 262.110 C 204.555 266.103,205.580 268.293,208.200 270.310 C 209.996 271.692,210.433 271.862,217.550 273.953 C 222.357 275.366,221.966 279.503,217.032 279.436 C 214.243 279.398,212.599 278.047,211.588 274.961 C 210.802 272.564,210.147 271.905,208.548 271.905 C 204.971 271.905,204.299 273.112,204.299 279.541 C 204.299 286.133,205.359 287.549,209.660 286.703 C 211.191 286.401,211.612 286.438,213.546 287.039 C 218.363 288.537,222.614 287.453,226.815 283.655 L 228.130 282.467 228.594 283.832 C 229.564 286.682,230.567 287.027,237.865 287.027 C 254.609 287.027,259.612 284.089,261.846 272.943 C 262.880 267.783,261.393 261.928,258.010 257.834 C 254.806 253.957,250.441 252.688,239.388 252.419 C 231.547 252.229,231.033 252.302,229.348 253.856 L 228.060 255.043 227.578 254.308 C 226.726 253.007,225.292 252.550,222.727 252.764 C 221.161 252.894,219.818 252.813,218.384 252.501 C 216.395 252.068,214.010 251.958,212.750 252.241 M219.618 253.718 C 221.046 254.074,221.760 254.105,222.880 253.863 C 226.367 253.109,228.082 256.620,226.842 261.972 C 226.277 264.411,223.894 265.011,222.271 263.124 C 219.875 260.339,218.927 259.506,217.790 259.191 C 214.539 258.288,211.712 259.552,211.712 261.909 C 211.712 263.798,212.961 264.656,217.238 265.711 C 224.745 267.561,228.183 271.052,228.157 276.798 C 228.125 283.987,221.224 288.304,213.473 285.984 C 211.234 285.314,210.820 285.273,209.436 285.583 C 206.044 286.342,205.189 285.083,205.189 279.333 C 205.189 274.298,205.746 273.091,208.069 273.091 C 209.340 273.091,210.128 273.817,210.688 275.504 C 212.617 281.310,221.794 282.471,221.794 276.908 C 221.794 274.395,221.158 273.876,216.547 272.629 C 208.476 270.445,205.421 267.669,205.363 262.462 C 205.283 255.399,211.372 251.665,219.618 253.718 M162.622 253.515 C 164.952 254.400,165.223 256.571,163.232 258.399 C 161.543 259.950,161.544 260.218,163.262 264.997 C 164.012 267.084,165.354 270.856,166.244 273.380 C 167.134 275.903,168.124 278.392,168.444 278.910 C 169.593 280.770,173.273 281.444,174.854 280.085 L 175.686 279.370 175.780 270.523 C 175.889 260.406,175.838 260.076,173.916 258.469 C 172.790 257.528,172.572 257.178,172.572 256.304 C 172.572 253.935,173.710 253.373,178.503 253.373 C 183.618 253.373,183.317 253.081,188.301 262.861 C 193.742 273.540,194.353 273.719,194.164 264.580 L 194.070 260.014 192.671 258.712 C 190.614 256.798,190.521 254.875,192.439 253.905 C 193.550 253.343,201.394 253.383,202.503 253.957 C 204.389 254.932,204.285 256.606,202.216 258.562 L 200.805 259.896 200.582 262.565 C 200.459 264.033,200.446 269.103,200.552 273.832 C 200.794 284.569,200.591 285.414,197.635 285.969 C 194.903 286.481,193.260 285.197,191.215 280.949 C 188.558 275.429,183.695 266.469,183.187 266.157 C 182.311 265.620,182.211 266.180,182.116 272.152 C 182.001 279.368,182.057 279.704,183.531 280.679 C 185.605 282.052,185.821 284.040,184.041 285.366 C 183.186 286.003,167.478 286.443,162.852 285.960 C 159.606 285.621,158.760 283.545,160.801 280.925 C 162.016 279.365,162.023 279.337,161.585 277.759 C 161.130 276.121,160.463 275.850,156.412 275.654 C 151.397 275.412,149.991 276.061,149.543 278.825 C 149.378 279.840,149.470 280.061,150.499 281.115 C 152.576 283.242,151.905 285.238,148.905 285.861 C 146.201 286.422,140.159 286.108,139.144 285.354 C 137.270 283.960,138.041 281.547,140.666 280.589 C 142.665 279.860,142.953 279.368,145.323 272.635 C 146.468 269.379,147.864 265.565,148.425 264.159 C 149.821 260.655,149.782 259.934,148.110 258.399 C 145.910 256.379,146.593 253.940,149.470 253.540 C 151.597 253.245,161.860 253.225,162.622 253.515 M244.114 253.527 C 252.733 254.227,256.720 256.356,259.301 261.636 C 263.880 271.004,259.837 282.645,251.207 284.940 C 247.355 285.965,234.707 286.550,232.096 285.825 C 229.323 285.055,228.941 282.340,231.392 280.824 C 233.048 279.801,233.095 279.465,233.000 269.288 L 232.913 260.033 231.357 258.603 C 229.207 256.627,229.525 253.904,231.960 253.433 C 233.282 253.177,240.488 253.233,244.114 253.527 M231.216 259.944 L 232.024 260.586 232.122 268.855 C 232.231 278.103,232.132 278.872,230.701 279.837 C 229.268 280.803,229.279 280.823,229.160 277.020 C 228.951 270.345,225.695 266.790,218.087 264.929 C 213.152 263.722,211.904 262.784,213.003 261.107 C 214.650 258.594,218.730 259.726,220.932 263.306 C 223.292 267.141,228.021 265.480,228.021 260.815 C 228.021 260.086,228.155 259.138,228.318 258.708 L 228.616 257.925 229.512 258.614 C 230.005 258.993,230.772 259.592,231.216 259.944 M240.651 259.545 L 239.881 260.314 239.881 269.628 C 239.881 278.747,239.895 278.959,240.527 279.763 L 241.173 280.584 244.160 280.426 C 251.525 280.036,253.966 277.361,253.966 269.681 C 253.966 264.846,253.863 264.451,251.981 262.056 C 249.836 259.327,242.496 257.700,240.651 259.545 M248.264 260.637 C 249.313 261.030,250.299 261.678,250.961 262.412 C 254.311 266.120,253.994 274.999,250.415 277.692 C 248.411 279.200,242.766 280.170,241.512 279.222 C 240.538 278.485,240.429 261.276,241.392 260.313 C 242.208 259.497,245.651 259.660,248.264 260.637 M155.148 262.777 C 153.804 264.397,152.698 269.349,153.576 269.819 C 155.447 270.820,158.342 269.974,158.333 268.428 C 158.317 265.758,156.035 261.709,155.148 262.777 M156.676 265.981 C 157.443 267.898,157.321 268.856,156.281 269.084 C 154.313 269.517,153.822 268.567,154.818 266.252 C 155.581 264.477,156.048 264.409,156.676 265.981 " stroke="none" fill="#c9ddeb" fill-rule="evenodd"></path></g></svg>